<svg width="32" height="32" viewBox="0 0 32 32" fill="none" xmlns="http://www.w3.org/2000/svg">
  <path d="M4 20C4 20 8 16 12 18C16 20 16 16 20 16C24 16 24 12 28 14" stroke="#795548" stroke-width="2" stroke-linecap="round" stroke-linejoin="round"/>
  <path d="M4 24C4 24 8 20 12 22C16 24 16 20 20 20C24 20 24 16 28 18" stroke="#795548" stroke-width="2" stroke-linecap="round" stroke-linejoin="round"/>
  <path d="M4 28C4 28 8 24 12 26C16 28 16 24 20 24C24 24 24 20 28 22" stroke="#795548" stroke-width="2" stroke-linecap="round" stroke-linejoin="round"/>
  <circle cx="10" cy="8" r="2" stroke="#795548" stroke-width="2" stroke-linecap="round" stroke-linejoin="round"/>
  <circle cx="18" cy="10" r="2" stroke="#795548" stroke-width="2" stroke-linecap="round" stroke-linejoin="round"/>
  <circle cx="24" cy="6" r="2" stroke="#795548" stroke-width="2" stroke-linecap="round" stroke-linejoin="round"/>
</svg>
