<svg width="32" height="32" viewBox="0 0 32 32" fill="none" xmlns="http://www.w3.org/2000/svg">
  <path d="M25 8H7C5.89543 8 5 8.89543 5 10V24C5 25.1046 5.89543 26 7 26H25C26.1046 26 27 25.1046 27 24V10C27 8.89543 26.1046 8 25 8Z" stroke="#FFC107" stroke-width="2" stroke-linecap="round" stroke-linejoin="round"/>
  <path d="M21 8V6C21 5.46957 20.7893 4.96086 20.4142 4.58579C20.0391 4.21071 19.5304 4 19 4H13C12.4696 4 11.9609 4.21071 11.5858 4.58579C11.2107 4.96086 11 5.46957 11 6V8" stroke="#FFC107" stroke-width="2" stroke-linecap="round" stroke-linejoin="round"/>
  <path d="M10 14L14 18L16 16L22 22" stroke="#FFC107" stroke-width="2" stroke-linecap="round" stroke-linejoin="round"/>
</svg>
